<svg xmlns="http://www.w3.org/2000/svg" width="32" height="32" viewBox="0 0 32 32" fill="none">
  <defs>
    <radialGradient id="glow" cx="50%" cy="50%" r="50%">
      <stop offset="0%" stop-color="#ffd27a" stop-opacity="0.95"/>
      <stop offset="45%" stop-color="#ffb84d" stop-opacity="0.45"/>
      <stop offset="100%" stop-color="#ffb84d" stop-opacity="0"/>
    </radialGradient>
    <linearGradient id="tower" x1="0" y1="0" x2="1" y2="0">
      <stop offset="0%" stop-color="#cfd8e3"/>
      <stop offset="50%" stop-color="#f4efe4"/>
      <stop offset="100%" stop-color="#b9c4d1"/>
    </linearGradient>
    <clipPath id="towerClip">
      <path d="M13.4 10 H18.6 L20.6 27 H11.4 Z"/>
    </clipPath>
  </defs>

  <!-- dark tile -->
  <rect width="32" height="32" rx="7" fill="#0c0b10"/>

  <!-- light halo + beams -->
  <circle cx="16" cy="9" r="11" fill="url(#glow)"/>
  <path d="M16 9 L3 5.5 L3 12.5 Z" fill="#ffd27a" opacity="0.22"/>
  <path d="M16 9 L29 5.5 L29 12.5 Z" fill="#ffd27a" opacity="0.22"/>

  <!-- tower with red band -->
  <g clip-path="url(#towerClip)">
    <rect x="10" y="9" width="12" height="19" fill="url(#tower)"/>
    <rect x="10" y="15.5" width="12" height="3.6" fill="#e0483b"/>
  </g>
  <path d="M13.4 10 H18.6 L20.6 27 H11.4 Z" fill="none" stroke="#0c0b10" stroke-width="0.6" opacity="0.5"/>

  <!-- base -->
  <rect x="10" y="26.6" width="12" height="2.2" rx="0.8" fill="#e7dcc6"/>

  <!-- lantern room + roof -->
  <rect x="13.6" y="6.4" width="4.8" height="4.2" rx="0.8" fill="#ffcf6e"/>
  <rect x="13.6" y="6.4" width="4.8" height="4.2" rx="0.8" fill="#fff2cf" opacity="0.5"/>
  <path d="M12.8 6.6 L16 3.4 L19.2 6.6 Z" fill="#e0483b"/>
  <circle cx="16" cy="8.5" r="1.5" fill="#fff7e0"/>
</svg>
